# xmcd
#
# Track frame offsets:
#     150
#     21077
#     39026
#     53499
#     66781
#     80740
#     96640
#     111541
#     128546
#     144330
#     165668
#     183096
#     201427
#     220372
#     237798
#     261948
#
# Disc length: 3740
#
# Revision: 1
# Processed by: cddbd v1.5.1PL0 Copyright (c) Steve Scherf et al.
# Submitted via: BF_CDLibrary 0.1 (Bob Faist CD Library)
#
DISCID=e00e9a10
DTITLE=The Black Keys - all by yourself
DYEAR=2004
DGENRE=Blues
TTITLE0=Hard Row
TTITLE1=Thickfreakness
TTITLE2=Busted
TTITLE3=Yearnin'
TTITLE4=Them Eyes
TTITLE5=The Breaks
TTITLE6=Set You Free
TTITLE7=Do The Rump
TTITLE8=She Said, She Said
TTITLE9=Everywhere I Go
TTITLE10=Have Love Will Travel
TTITLE11=No Trust
TTITLE12=No Fun
TTITLE13=I'll Be Your Man
TTITLE14=Heavy Soul
TTITLE15=I Cry Alone
EXTD=2004-01-25 Thickfreakness Tour Mean Fiddler London, England
EXTT0=
EXTT1=
EXTT2=
EXTT3=
EXTT4=
EXTT5=
EXTT6=
EXTT7=
EXTT8=
EXTT9=
EXTT10=
EXTT11=
EXTT12=
EXTT13=
EXTT14=
EXTT15=
PLAYORDER=
